 http://www.imdb.com/title/tt0034384/

cover


screens



Plot:

Vance Shaw gives up outlawing and goes to work for the telegraph company; his brother Jack Slade leads outlaws trying to prevent the company connecting the line between Omaha and Salt Lake City. Lots of Indian fighting and gunplay.


Cast:

Robert Young	... Richard Blake
Randolph Scott	... Vance Shaw
Dean Jagger	... Edward Creighton
Virginia Gilmore	... Sue Creighton
John Carradine	... Doc Murdoch
Slim Summerville	... Herman, called 'Cookie'
Chill Wills	... Homer Kettle
Barton MacLane	... Jack Slade
Russell Hicks	... Provisional Governor, Territory of Nebraska
Victor Kilian	... Charlie
Minor Watson	... Pat Grogan
George Chandler	... Herb
Chief John Big Tree	... Chief Spotted Horse (as Chief Big Tree)
Chief Thundercloud	... Indian Leader
Dick Rich	... Porky
Addison Richards	... Capt. Harlow
Irving Bacon	... Joe the Barber
C.E. Anderson	... Old Timer (uncredited)
Arthur Aylesworth	... Woody (uncredited)
Hank Bell	... Telegraph Worker (uncredited)


SOURCE: Western Union (1941) DVDRip (SiRiUs sHaRe)
AUDIO LANGUAGE: English

Format : AVI
File size : 3.67 GiB
Duration : 1h 31mn
Overall bit rate : 5 735 Kbps

Video
Format : MPEG-4 Visual
Format settings, BVOP : Yes
Format settings, QPel : No
Format settings, GMC : No warppoints
Codec ID/Hint : XviD
Duration : 1h 31mn
Bit rate : 5 533 Kbps
Width : 720 pixels
Height : 480 pixels
Display aspect ratio : 3:2
Frame rate : 25.000 fps
Standard : NTSC
Color space : YUV
Chroma subsampling : 4:2:0
Bit depth : 8 bits
Scan type : Progressive
Bits/(Pixel*Frame) : 0.640
Stream size : 3.54 GiB (96%)

Audio
Format : AC-3
Format/Info : Audio Coding 3
Mode extension : CM (complete main)
Duration : 1h 31mn
Bit rate mode : Constant
Bit rate : 192 Kbps
Channel(s) : 6 channels
Channel positions : Front: L C R, Side: L R, LFE
Sampling rate : 48.0 KHz
Bit depth : 16 bits
Stream size : 126 MiB (3%)
Alignment : Split accross interleaves
Interleave, duration : 40 ms (1.00 video frame)
Interleave, preload duration : 500 ms


EnJoY iT ! 
